<svg version="1.1"
      xmlns="http://www.w3.org/2000/svg"
      xmlns:xlink="http://www.w3.org/1999/xlink"  id="snapshot-38321" width="250" height="250" viewBox="0 0 250 250"><desc>This image was made on Patterninja.com</desc><defs>
<!-- image 97408 -->
<g id="transformed-97408" data-image="97408" transform="translate(-63.694583757176716, -61.656357076947124) rotate(337, 63.694583757176716, 61.656357076947124)"><g><svg version="1.1" width="127.38916751435343px" height="123.31271415389425px" viewBox="0 0 127.38916751435343 123.31271415389425"><g id="original-97408"><svg xmlns="http://www.w3.org/2000/svg" viewBox="0 0 70 68" xmlns:xlink="http://www.w3.org/1999/xlink" version="1.1" preserveAspectRatio="xMidYMid meet">
  <path fill-rule="evenodd" d="M70 37v25a6 6 0 0 1-6 6H6a6 6 0 0 1-6-6V37h70z" fill="rgba(183, 91, 36, 1)" stroke="none"/>
  <path fill-rule="evenodd" d="M0 37V18a6 6 0 0 1 6-6h14V6a6 6 0 0 1 6-6h18a6 6 0 0 1 6 6v6h14a6 6 0 0 1 6 6v19H0zm45-27V8a3 3 0 0 0-3-3H28a3 3 0 0 0-3 3v4h20v-2z" fill="rgba(154, 76, 29, 1)" stroke="none"/>
  <path fill-rule="evenodd" d="M53 33a4 4 0 1 1 0 8 4 4 0 0 1 0-8z" fill="rgba(200, 146, 17, 1)" stroke="none"/>
  <path fill-rule="evenodd" d="M17 33a4 4 0 1 1 0 8 4 4 0 0 1 0-8z" fill="rgba(200, 146, 17, 1)" stroke="none"/>
</svg>
</g></svg></g></g>
<!-- /image 97408 -->

<!-- image 09193 -->
<g id="transformed-09193" data-image="09193" transform="translate(79.58341330781518, 73.97274408196509) rotate(321, 43.41658669218482, 42.0272559180349)"><g><svg version="1.1" width="86.83317338436964px" height="84.0545118360698px" viewBox="0 0 86.83317338436964 84.0545118360698"><g id="original-09193"><svg xmlns="http://www.w3.org/2000/svg" viewBox="0 0 70 68" xmlns:xlink="http://www.w3.org/1999/xlink" version="1.1" preserveAspectRatio="xMidYMid meet">
  <path fill-rule="evenodd" d="M14 65c9.113 0 11-2.853 11-8 0-.169-.02-.832-.025-1h20.05c0 .168-.025.831-.025 1 0 5.147 1.887 8 11 8v3H14v-3z" fill="rgba(81, 96, 120, 1)" stroke="none"/>
  <rect width="70" height="54" y="2" fill-rule="evenodd" rx="6" fill="rgba(111, 130, 164, 1)" stroke="none"/>
  <path fill-rule="evenodd" d="M70 47V5.998A5.993 5.993 0 0 0 64.002 0H5.998A5.995 5.995 0 0 0 0 5.998V47h70z" fill="rgba(165, 181, 211, 1)" stroke="none"/>
  <circle cx="35" cy="52" r="3" fill-rule="evenodd" fill="rgba(80, 96, 121, 1)" stroke="none"/>
</svg>
</g></svg></g></g>
<!-- /image 09193 -->

<!-- image 67063 -->
<g id="transformed-67063" data-image="67063" transform="translate(91.69504831500294, 195.69504831500294) rotate(63, 31.304951684997057, 31.304951684997057)"><g><svg version="1.1" width="62.609903369994115px" height="62.609903369994115px" viewBox="0 0 62.609903369994115 62.609903369994115"><g id="original-67063"><svg xmlns="http://www.w3.org/2000/svg" viewBox="0 0 73 73" xmlns:xlink="http://www.w3.org/1999/xlink" version="1.1" preserveAspectRatio="xMidYMid meet">
  <path fill-rule="evenodd" d="M54.454 47.383L71.142 64.07a4 4 0 0 1 0 5.657l-1.414 1.414a4 4 0 0 1-5.657 0L47.383 54.454A29.863 29.863 0 0 1 30 60C13.431 60 0 46.569 0 30 0 13.431 13.431 0 30 0c16.569 0 30 13.431 30 30 0 6.48-2.054 12.479-5.546 17.383z" fill="rgba(52, 185, 241, 1)" stroke="none"/>
  <circle cx="30" cy="30" r="22" fill-rule="evenodd" fill="rgba(141, 221, 255, 1)" stroke="none"/>
</svg>
</g></svg></g></g>
<!-- /image 67063 -->

<!-- image 52005 -->
<g id="transformed-52005" data-image="52005" transform="translate(-17.358921321078, 102.16718427000252) rotate(26, 21.358921321078, 26.832815729997478)"><g><svg version="1.1" width="42.717842642156px" height="53.665631459994955px" viewBox="0 0 42.717842642156 53.665631459994955"><g id="original-52005"><svg xmlns="http://www.w3.org/2000/svg" viewBox="0 0 55 69" xmlns:xlink="http://www.w3.org/1999/xlink" version="1.1" preserveAspectRatio="xMidYMid meet">
  <path fill-rule="evenodd" d="M5 69V5h50v64z" fill="rgba(144, 144, 143, 1)" stroke="none"/>
  <path fill-rule="evenodd" d="M0 64V0h36l14 14v50z" fill="rgba(255, 255, 255, 1)" stroke="none"/>
  <path fill-rule="evenodd" d="M36 0l14 14H36z" fill="rgba(210, 210, 210, 1)" stroke="none"/>
  <path fill-rule="evenodd" d="M10.5 49h29a.5.5 0 1 1 0 1h-29a.5.5 0 1 1 0-1z" fill="rgba(144, 144, 143, 1)" stroke="none"/>
  <path fill-rule="evenodd" d="M10.5 39h29a.5.5 0 1 1 0 1h-29a.5.5 0 1 1 0-1z" fill="rgba(144, 144, 143, 1)" stroke="none"/>
  <path fill-rule="evenodd" d="M10.5 29h29a.5.5 0 1 1 0 1h-29a.5.5 0 1 1 0-1z" fill="rgba(144, 144, 143, 1)" stroke="none"/>
  <path fill-rule="evenodd" d="M10.5 19h29a.5.5 0 1 1 0 1h-29a.5.5 0 1 1 0-1z" fill="rgba(144, 144, 143, 1)" stroke="none"/>
</svg>
</g></svg></g></g>
<!-- /image 52005 -->
</defs><rect x="0" y="0" width="250" height="250" fill="rgba(238, 238, 238, 1)"></rect><use xlink:href="#transformed-97408" transform="translate(-250, -250)"></use><use xlink:href="#transformed-97408" transform="translate(0, -250)"></use><use xlink:href="#transformed-97408" transform="translate(250, -250)"></use><use xlink:href="#transformed-97408" transform="translate(-250, 0)"></use><use xlink:href="#transformed-97408" transform="translate(0, 0)"></use><use xlink:href="#transformed-97408" transform="translate(250, 0)"></use><use xlink:href="#transformed-97408" transform="translate(-250, 250)"></use><use xlink:href="#transformed-97408" transform="translate(0, 250)"></use><use xlink:href="#transformed-97408" transform="translate(250, 250)"></use><use xlink:href="#transformed-09193" transform="translate(-250, -250)"></use><use xlink:href="#transformed-09193" transform="translate(0, -250)"></use><use xlink:href="#transformed-09193" transform="translate(250, -250)"></use><use xlink:href="#transformed-09193" transform="translate(-250, 0)"></use><use xlink:href="#transformed-09193" transform="translate(0, 0)"></use><use xlink:href="#transformed-09193" transform="translate(250, 0)"></use><use xlink:href="#transformed-09193" transform="translate(-250, 250)"></use><use xlink:href="#transformed-09193" transform="translate(0, 250)"></use><use xlink:href="#transformed-09193" transform="translate(250, 250)"></use><use xlink:href="#transformed-67063" transform="translate(-250, -250)"></use><use xlink:href="#transformed-67063" transform="translate(0, -250)"></use><use xlink:href="#transformed-67063" transform="translate(250, -250)"></use><use xlink:href="#transformed-67063" transform="translate(-250, 0)"></use><use xlink:href="#transformed-67063" transform="translate(0, 0)"></use><use xlink:href="#transformed-67063" transform="translate(250, 0)"></use><use xlink:href="#transformed-67063" transform="translate(-250, 250)"></use><use xlink:href="#transformed-67063" transform="translate(0, 250)"></use><use xlink:href="#transformed-67063" transform="translate(250, 250)"></use><use xlink:href="#transformed-52005" transform="translate(-250, -250)"></use><use xlink:href="#transformed-52005" transform="translate(0, -250)"></use><use xlink:href="#transformed-52005" transform="translate(250, -250)"></use><use xlink:href="#transformed-52005" transform="translate(-250, 0)"></use><use xlink:href="#transformed-52005" transform="translate(0, 0)"></use><use xlink:href="#transformed-52005" transform="translate(250, 0)"></use><use xlink:href="#transformed-52005" transform="translate(-250, 250)"></use><use xlink:href="#transformed-52005" transform="translate(0, 250)"></use><use xlink:href="#transformed-52005" transform="translate(250, 250)"></use></svg>